<svg xmlns="http://www.w3.org/2000/svg" viewBox="0 0 100 100">
  <rect width="100" height="100" fill="#111111" rx="20" ry="20" />
  <!-- <text x="25" y="80" font-size="68" fill="white" font-family="Arial, sans-serif" font-weight="bold" transform="scale(1.1,1.0)" transform-origin="left">h</text> -->
  <path d="M21.38 100L2.02 100L2.02 96.33L8.93 95.18L14.54 95.18L21.38 96.33L21.38 100ZM18.00 100L6.05 100Q6.05 98.20 6.08 95.50Q6.12 92.80 6.16 89.92Q6.19 87.04 6.19 84.74L6.19 84.74L6.19 55.00L1.58 54.14L1.58 50.90L16.20 47.80L17.86 48.45L17.64 58.46L17.57 72.50L17.78 73.29L17.78 84.74Q17.78 87.04 17.82 89.92Q17.86 92.80 17.89 95.50Q17.93 98.20 18.00 100L18.00 100ZM43.99 100L24.62 100L24.62 96.33L31.25 95.18L36.79 95.18L43.99 96.33L43.99 100ZM40.25 100L28.30 100Q28.30 98.20 28.33 95.54Q28.37 92.87 28.40 89.99Q28.44 87.11 28.44 84.74L28.44 84.74L28.44 77.25Q28.44 73.79 27.54 72.42Q26.64 71.06 24.34 71.06L24.34 71.06Q23.04 71.06 21.56 71.70Q20.09 72.35 18.58 73.58Q17.06 74.80 15.55 76.46L15.55 76.46L14.90 71.78L16.63 71.78Q18.65 68.97 20.63 67.20Q22.61 65.44 24.73 64.58Q26.86 63.71 29.45 63.71L29.45 63.71Q34.34 63.71 37.22 66.84Q40.10 69.98 40.10 76.17L40.10 76.17L40.10 84.74Q40.10 87.11 40.10 89.99Q40.10 92.87 40.14 95.54Q40.18 98.20 40.25 100L40.25 100Z" fill="white" transform="translate(29, -20.8)"/>
  <circle cx="82" cy="74.75" r="4.5" fill="white" />
</svg>
